<svg>

  <symbol id="ph-136-136" viewBox="0 0 136 136" fill="none" 
    xmlns="http://www.w3.org/2000/svg">
    <rect width="136" height="136" rx="4" fill="#E1E7EB"/>
    <g clip-path="url(#clip0)">
      <path d="M16.1621 16.4642V14.5448H12.2258L11.251 15.5724V16.852V17.9572L12.4098 16.7551L16.1621 16.4642Z" fill="white"/>
      <path d="M37.0202 18.0349L30.6928 17.5308V14.7L25.0092 13.75L19.3072 14.7V17.5502L12.9798 18.0543L10 21.1953V35H40V21.1953L37.0202 18.0349ZM16.7689 25.5771H14.3593V23.0372H16.7872V25.5771H16.7689ZM25.0092 32.9254C21.6799 32.9254 18.9761 30.0753 18.9761 26.5659C18.9761 23.0566 21.6799 20.2064 25.0092 20.2064C28.3384 20.2064 31.0423 23.0566 31.0423 26.5659C31.0239 30.0947 28.3384 32.9254 25.0092 32.9254Z" fill="white"/>
    </g>
  </symbol>

  <symbol id="ph-175-100" viewBox="0 0 175 100" fill="none" 
    xmlns="http://www.w3.org/2000/svg">
    <rect width="175" height="100" rx="6" fill="#E1E7EB"/>
    <g clip-path="url(#clip0)">
      <path d="M16.1622 16.4643V14.5448H12.2259L11.2511 15.5724V16.8521V17.9572L12.4099 16.7551L16.1622 16.4643Z" fill="white"/>
      <path d="M37.0202 18.0349L30.6928 17.5308V14.7L25.0092 13.75L19.3072 14.7V17.5502L12.9798 18.0543L10 21.1953V35H40V21.1953L37.0202 18.0349ZM16.7689 25.5771H14.3593V23.0372H16.7872V25.5771H16.7689ZM25.0092 32.9254C21.6799 32.9254 18.9761 30.0753 18.9761 26.5659C18.9761 23.0566 21.6799 20.2064 25.0092 20.2064C28.3384 20.2064 31.0423 23.0566 31.0423 26.5659C31.0239 30.0947 28.3384 32.9254 25.0092 32.9254Z" fill="white"/>
    </g>
  </symbol>

  <symbol id="ph-130-100" viewBox="0 0 130 100" fill="none" 
    xmlns="http://www.w3.org/2000/svg">
    <rect width="130" height="100" rx="4" fill="#E1E7EB"/>
    <g clip-path="url(#clip0)">
      <path d="M16.1621 16.4642V14.5448H12.2258L11.251 15.5724V16.852V17.9572L12.4098 16.7551L16.1621 16.4642Z" fill="white"/>
      <path d="M37.0202 18.0349L30.6928 17.5308V14.7L25.0092 13.75L19.3072 14.7V17.5502L12.9798 18.0543L10 21.1953V35H40V21.1953L37.0202 18.0349ZM16.7689 25.5771H14.3593V23.0372H16.7872V25.5771H16.7689ZM25.0092 32.9254C21.6799 32.9254 18.9761 30.0753 18.9761 26.5659C18.9761 23.0566 21.6799 20.2064 25.0092 20.2064C28.3384 20.2064 31.0423 23.0566 31.0423 26.5659C31.0239 30.0947 28.3384 32.9254 25.0092 32.9254Z" fill="white"/>
    </g>
  </symbol>

  <symbol id="ph-130-150" viewBox="0 0 130 150" fill="none" 
    xmlns="http://www.w3.org/2000/svg">
    <rect width="130" height="150" rx="4" fill="#E1E7EB"/>
    <g clip-path="url(#clip0)">
      <path d="M16.1621 16.4642V14.5448H12.2258L11.251 15.5724V16.852V17.9572L12.4098 16.7551L16.1621 16.4642Z" fill="white"/>
      <path d="M37.0202 18.0349L30.6928 17.5308V14.7L25.0092 13.75L19.3072 14.7V17.5502L12.9798 18.0543L10 21.1953V35H40V21.1953L37.0202 18.0349ZM16.7689 25.5771H14.3593V23.0372H16.7872V25.5771H16.7689ZM25.0092 32.9254C21.6799 32.9254 18.9761 30.0753 18.9761 26.5659C18.9761 23.0566 21.6799 20.2064 25.0092 20.2064C28.3384 20.2064 31.0423 23.0566 31.0423 26.5659C31.0239 30.0947 28.3384 32.9254 25.0092 32.9254Z" fill="white"/>
    </g>
  </symbol>

  <symbol id="ph-175-210" viewBox="0 0 175 210" fill="none" 
    xmlns="http://www.w3.org/2000/svg">
    <rect width="175" height="210" rx="8" fill="#E1E7EB"/>
    <g clip-path="url(#clip0)">
      <path d="M17.1892 17.5416V15.3022H12.5969L11.4596 16.5011V17.994V19.2834L12.8115 17.8809L17.1892 17.5416Z" fill="white"/>
      <path d="M41.5236 19.374L34.1416 18.7859V15.4834L27.5107 14.375L20.8584 15.4834V18.8085L13.4764 19.3967L10 23.0611V39.1667H45V23.0611L41.5236 19.374ZM17.897 28.1733H15.0858V25.21H17.9185V28.1733H17.897ZM27.5107 36.7463C23.6266 36.7463 20.4721 33.4212 20.4721 29.3269C20.4721 25.2327 23.6266 21.9075 27.5107 21.9075C31.3948 21.9075 34.5494 25.2327 34.5494 29.3269C34.5279 33.4438 31.3948 36.7463 27.5107 36.7463Z" fill="white"/>
    </g>
  </symbol>

  <symbol id="ph-278-300" viewBox="0 0 278 300" fill="none" 
    xmlns="http://www.w3.org/2000/svg">
    <rect width="278" height="300" rx="6" fill="#E1E7EB"/>
    <g clip-path="url(#clip0)">
      <path d="M22.3245 22.9285V19.0895H14.452L12.5023 21.1447V23.704V25.9144L14.8199 23.5102L22.3245 22.9285Z" fill="white"/>
      <path d="M64.0405 26.0698L51.3857 25.0616V19.4001L40.0184 17.5L28.6143 19.4001V25.1004L15.9595 26.1086L10 32.3905V60H70V32.3905L64.0405 26.0698ZM23.5377 41.1542H18.7186V36.0744H23.5745V41.1542H23.5377ZM40.0184 55.8508C33.3599 55.8508 27.9522 50.1505 27.9522 43.1318C27.9522 36.1131 33.3599 30.4129 40.0184 30.4129C46.6769 30.4129 52.0846 36.1131 52.0846 43.1318C52.0478 50.1893 46.6769 55.8508 40.0184 55.8508Z" fill="white"/>
    </g>
  </symbol>

  <symbol id="ph-250-150" viewBox="0 0 250 150" fill="none" 
    xmlns="http://www.w3.org/2000/svg">
    <rect width="250" height="150" rx="4" fill="#E1E7EB"/>
    <g clip-path="url(#clip0)">
      <path d="M16.1621 16.4642V14.5448H12.2258L11.251 15.5724V16.852V17.9572L12.4098 16.7551L16.1621 16.4642Z" fill="white"/>
      <path d="M37.0202 18.0349L30.6928 17.5308V14.7L25.0092 13.75L19.3072 14.7V17.5502L12.9798 18.0543L10 21.1953V35H40V21.1953L37.0202 18.0349ZM16.7689 25.5771H14.3593V23.0372H16.7872V25.5771H16.7689ZM25.0092 32.9254C21.6799 32.9254 18.9761 30.0753 18.9761 26.5659C18.9761 23.0566 21.6799 20.2064 25.0092 20.2064C28.3384 20.2064 31.0423 23.0566 31.0423 26.5659C31.0239 30.0947 28.3384 32.9254 25.0092 32.9254Z" fill="white"/>
    </g>
  </symbol>

  <symbol id="ph-130-182" viewBox="0 0 130 182" fill="none" 
    xmlns="http://www.w3.org/2000/svg">
    <rect width="130" height="182" rx="5" fill="#E1E7EB"/>
    <g clip-path="url(#clip0)">
      <path d="M16.1621 16.4642V14.5448H12.2258L11.251 15.5724V16.852V17.9572L12.4098 16.7551L16.1621 16.4642Z" fill="white"/>
      <path d="M37.0202 18.0349L30.6928 17.5308V14.7L25.0092 13.75L19.3072 14.7V17.5502L12.9798 18.0543L10 21.1953V35H40V21.1953L37.0202 18.0349ZM16.7689 25.5771H14.3593V23.0372H16.7872V25.5771H16.7689ZM25.0092 32.9254C21.6799 32.9254 18.9761 30.0753 18.9761 26.5659C18.9761 23.0566 21.6799 20.2064 25.0092 20.2064C28.3384 20.2064 31.0423 23.0566 31.0423 26.5659C31.0239 30.0947 28.3384 32.9254 25.0092 32.9254Z" fill="white"/>
    </g>
  </symbol>

  <symbol id="ph-555-600" viewBox="0 0 555 600" fill="none" 
    xmlns="http://www.w3.org/2000/svg">
    <rect width="555" height="600" fill="#E1E7EB"/>
    <g clip-path="url(#clip0)">
      <path d="M46.4327 44.238V39.1194H35.9361L33.3364 41.8597V45.2721V48.2192L36.4266 45.0136L46.4327 44.238Z" fill="white"/>
      <path d="M102.054 48.4264L85.1809 47.0821V39.5335L70.0245 37L54.8191 39.5335V47.1338L37.946 48.4781L30 56.854V93.6667H110V56.854L102.054 48.4264ZM48.0503 68.5389H41.6248V61.7658H48.0993V68.5389H48.0503ZM70.0245 88.1344C61.1465 88.1344 53.9362 80.5341 53.9362 71.1758C53.9362 61.8175 61.1465 54.2172 70.0245 54.2172C78.9025 54.2172 86.1128 61.8175 86.1128 71.1758C86.0638 80.5858 78.9025 88.1344 70.0245 88.1344Z" fill="white"/>
    </g>
  </symbol>

  <symbol id="ph-335-360" viewBox="0 0 335 360" fill="none" 
    xmlns="http://www.w3.org/2000/svg">
    <rect width="335" height="360" fill="#E1E7EB"/>
    <g clip-path="url(#clip0)">
      <path d="M150.324 162.928V159.09H142.452L140.502 161.145V163.704V165.914L142.82 163.51L150.324 162.928Z" fill="white"/>
      <path d="M192.04 166.07L179.386 165.062V159.4L168.018 157.5L156.614 159.4V165.1L143.96 166.109L138 172.391V200H198V172.391L192.04 166.07ZM151.538 181.154H146.719V176.074H151.574V181.154H151.538ZM168.018 195.851C161.36 195.851 155.952 190.151 155.952 183.132C155.952 176.113 161.36 170.413 168.018 170.413C174.677 170.413 180.085 176.113 180.085 183.132C180.048 190.189 174.677 195.851 168.018 195.851Z" fill="white"/>
    </g>
  </symbol>

  <symbol id="ph-wide" viewBox="0 0 1260 700" fill="none" 
    xmlns="http://www.w3.org/2000/svg">
    <rect x="1.52588e-05" width="1260" height="700" fill="#E1E7EB"/>
    <g clip-path="url(#clip0)">
      <path d="M34.375 547.04V548.3H37.825V557H39.175V548.3H42.625V547.04H34.375ZM45.5479 549.905C43.9729 549.905 42.5779 550.685 42.1879 552.11H43.6129C43.8979 551.45 44.7079 551.105 45.5479 551.105C46.6879 551.105 47.5579 551.525 47.5579 552.665H45.3829C43.7779 552.665 42.3529 553.22 42.3529 554.9C42.3529 556.445 43.5379 557.195 45.1579 557.195C46.2379 557.195 47.0179 556.835 47.5579 556.25V557H48.8479V552.605C48.8479 550.88 47.5129 549.905 45.5479 549.905ZM47.5579 554.24C47.5579 555.275 46.6879 555.995 45.2929 555.995C44.2879 555.995 43.6429 555.665 43.6429 554.9C43.6429 554.135 44.2879 553.79 45.3679 553.79H47.5579V554.24ZM52.3836 557L56.4186 551.975V557H57.7086V550.1H56.4186L52.3836 555.125V550.1H51.0936V557H52.3836ZM60.7774 550.1V553.025C60.7774 554.225 60.7474 555.785 59.4724 555.785H59.2024V557H59.6374C61.9174 557 62.0674 554.765 62.0674 553.025V551.24H65.0074V557H66.2974V550.1H60.7774ZM71.461 549.905C69.886 549.905 68.491 550.685 68.101 552.11H69.526C69.811 551.45 70.621 551.105 71.461 551.105C72.601 551.105 73.471 551.525 73.471 552.665H71.296C69.691 552.665 68.266 553.22 68.266 554.9C68.266 556.445 69.451 557.195 71.071 557.195C72.151 557.195 72.931 556.835 73.471 556.25V557H74.761V552.605C74.761 550.88 73.426 549.905 71.461 549.905ZM73.471 554.24C73.471 555.275 72.601 555.995 71.206 555.995C70.201 555.995 69.556 555.665 69.556 554.9C69.556 554.135 70.201 553.79 71.281 553.79H73.471V554.24ZM82.3317 550.1V552.95H78.2967V550.1H77.0067V557H78.2967V554.09H82.3317V557H83.6217V550.1H82.3317ZM93.4854 558.89V555.86H92.3604V550.1H86.7804V552.965C86.7804 554.12 86.5704 555.26 85.9254 555.86H85.1154V558.89H86.4054V557H92.1954V558.89H93.4854ZM88.0704 551.24H91.0704V555.86H87.4704C87.9654 555.05 88.0704 553.91 88.0704 552.95V551.24Z" fill="white"/>
      <circle cx="101.5" cy="552.5" r="1.5" fill="white"/>
      <path d="M117.3 554.015C117.3 552.395 116.25 551.03 113.895 551.03H110.625V548.3H116.7V547.04H109.275V557H113.895C116.25 557 117.3 555.635 117.3 554.015ZM115.95 554.015C115.95 555.155 115.155 555.74 113.895 555.74H110.625V552.29H113.895C115.155 552.29 115.95 552.875 115.95 554.015ZM121.862 549.905C120.287 549.905 118.892 550.685 118.502 552.11H119.927C120.212 551.45 121.022 551.105 121.862 551.105C123.002 551.105 123.872 551.525 123.872 552.665H121.697C120.092 552.665 118.667 553.22 118.667 554.9C118.667 556.445 119.852 557.195 121.472 557.195C122.552 557.195 123.332 556.835 123.872 556.25V557H125.162V552.605C125.162 550.88 123.827 549.905 121.862 549.905ZM123.872 554.24C123.872 555.275 123.002 555.995 121.607 555.995C120.602 555.995 119.957 555.665 119.957 554.9C119.957 554.135 120.602 553.79 121.682 553.79H123.872V554.24ZM132.733 550.1V552.95H128.698V550.1H127.408V557H128.698V554.09H132.733V557H134.023V550.1H132.733ZM136.417 550.1V557H137.707V551.24H141.772V550.1H136.417ZM143.419 550.1V557H144.709V554.165L148.024 557H149.749L145.924 553.55L149.749 550.1H148.024L144.709 553.115V550.1H143.419ZM154.113 549.905C152.028 549.905 150.498 551.465 150.498 553.55C150.498 555.635 152.028 557.195 154.113 557.195C156.183 557.195 157.728 555.635 157.728 553.55C157.728 551.465 156.183 549.905 154.113 549.905ZM154.113 555.995C152.748 555.995 151.788 554.9 151.788 553.55C151.788 552.17 152.748 551.105 154.113 551.105C155.478 551.105 156.438 552.17 156.438 553.55C156.438 554.9 155.478 555.995 154.113 555.995ZM159.679 550.1V557H160.969V554.165L164.284 557H166.009L162.184 553.55L166.009 550.1H164.284L160.969 553.115V550.1H159.679Z" fill="white"/>
      <circle cx="173.5" cy="552.5" r="1.5" fill="white"/>
      <path d="M184.92 548.105C186.825 548.105 188.385 549.47 188.58 551.39H183.18V552.65H188.58C188.34 554.585 186.855 555.935 184.92 555.935C183.615 555.935 182.67 555.38 182.055 554.525H180.525C181.32 556.13 182.865 557.195 184.92 557.195C187.785 557.195 189.975 555.005 189.975 552.02C189.975 549.035 187.785 546.845 184.92 546.845C182.865 546.845 181.32 547.91 180.525 549.515H182.055C182.67 548.66 183.615 548.105 184.92 548.105ZM191.849 550.1V557H193.139V554.165L196.454 557H198.179L194.354 553.55L198.179 550.1H196.454L193.139 553.115V550.1H191.849ZM205.784 552.11C205.289 550.775 204.074 549.905 202.529 549.905C200.489 549.905 198.929 551.465 198.929 553.55C198.929 555.635 200.489 557.195 202.529 557.195C204.074 557.195 205.289 556.325 205.784 554.99H204.374C204.014 555.605 203.354 555.995 202.529 555.995C201.179 555.995 200.219 554.93 200.219 553.55C200.219 552.17 201.179 551.105 202.529 551.105C203.354 551.105 204.014 551.495 204.374 552.11H205.784ZM207.655 550.1V557H208.945V554.165L212.26 557H213.985L210.16 553.55L213.985 550.1H212.26L208.945 553.115V550.1H207.655ZM217.371 556.91L217.086 557.57C216.621 558.635 216.336 558.92 215.526 558.92H215.106V560.06H215.766C217.386 560.06 217.611 559.46 218.526 557.375L221.781 550.1H220.416L218.091 555.305L215.781 550.1H214.326L217.371 556.91ZM224.472 560.06V556.25C224.997 556.835 225.822 557.195 226.797 557.195C229.077 557.195 230.292 555.455 230.292 553.55C230.292 551.645 229.077 549.905 226.797 549.905C225.822 549.905 224.997 550.265 224.472 550.85V550.1H223.182V560.06H224.472ZM224.427 553.55C224.427 551.915 225.552 551.105 226.752 551.105C228.087 551.105 229.002 552.23 229.002 553.55C229.002 554.87 228.087 555.995 226.752 555.995C225.552 555.995 224.427 555.185 224.427 553.55ZM238.64 552.11C238.145 550.775 236.93 549.905 235.385 549.905C233.345 549.905 231.785 551.465 231.785 553.55C231.785 555.635 233.345 557.195 235.385 557.195C236.93 557.195 238.145 556.325 238.64 554.99H237.23C236.87 555.605 236.21 555.995 235.385 555.995C234.035 555.995 233.075 554.93 233.075 553.55C233.075 552.17 234.035 551.105 235.385 551.105C236.21 551.105 236.87 551.495 237.23 552.11H238.64ZM241.802 557L245.837 551.975V557H247.127V550.1H245.837L241.802 555.125V550.1H240.512V557H241.802ZM250.81 557L254.845 551.975V557H256.135V550.1H254.845L250.81 555.125V550.1H249.52V557H250.81Z" fill="white"/>
      <circle cx="264.5" cy="552.5" r="1.5" fill="white"/>
      <path d="M282.385 547.04L278.185 555.65L273.985 547.04H272.275V557H273.625V549.26L277.405 557H278.935L282.715 549.26V557H284.065V547.04H282.385ZM289.706 549.905C287.621 549.905 286.091 551.465 286.091 553.55C286.091 555.635 287.621 557.195 289.706 557.195C291.776 557.195 293.321 555.635 293.321 553.55C293.321 551.465 291.776 549.905 289.706 549.905ZM289.706 555.995C288.341 555.995 287.381 554.9 287.381 553.55C287.381 552.17 288.341 551.105 289.706 551.105C291.071 551.105 292.031 552.17 292.031 553.55C292.031 554.9 291.071 555.995 289.706 555.995ZM296.561 560.06V556.25C297.086 556.835 297.911 557.195 298.886 557.195C301.166 557.195 302.381 555.455 302.381 553.55C302.381 551.645 301.166 549.905 298.886 549.905C297.911 549.905 297.086 550.265 296.561 550.85V550.1H295.271V560.06H296.561ZM296.516 553.55C296.516 551.915 297.641 551.105 298.841 551.105C300.176 551.105 301.091 552.23 301.091 553.55C301.091 554.87 300.176 555.995 298.841 555.995C297.641 555.995 296.516 555.185 296.516 553.55ZM310.729 552.11C310.234 550.775 309.019 549.905 307.474 549.905C305.434 549.905 303.874 551.465 303.874 553.55C303.874 555.635 305.434 557.195 307.474 557.195C309.019 557.195 310.234 556.325 310.729 554.99H309.319C308.959 555.605 308.299 555.995 307.474 555.995C306.124 555.995 305.164 554.93 305.164 553.55C305.164 552.17 306.124 551.105 307.474 551.105C308.299 551.105 308.959 551.495 309.319 552.11H310.729ZM312.6 550.1V557H313.89V554.165L317.205 557H318.93L315.105 553.55L318.93 550.1H317.205L313.89 553.115V550.1H312.6ZM321.566 557L325.601 551.975V557H326.891V550.1H325.601L321.566 555.125V550.1H320.276V557H321.566ZM332.45 555.995C331.25 555.995 330.335 555.155 330.17 554.03H335.735C335.78 553.835 335.765 553.625 335.765 553.46C335.765 551.48 334.34 549.905 332.375 549.905C330.29 549.905 328.835 551.465 328.835 553.535C328.835 555.665 330.365 557.195 332.45 557.195C333.965 557.195 335.195 556.4 335.675 555.065H334.28C333.92 555.68 333.275 555.995 332.45 555.995ZM332.375 551.105C333.515 551.105 334.25 551.825 334.415 552.905H330.185C330.35 551.825 331.175 551.105 332.375 551.105Z" fill="white"/>
    </g>
  </symbol>

</svg>
