<svg>
  <!-- <Divisons> -->
  <symbol id="excursions" viewBox="0 0 40 40" 
    xmlns="http://www.w3.org/2000/svg">
    <g>
      <g clip-path="url(#clip0)">
        <path d="M19.2683 29.8097L11.2896 32.7163L3 17.7682L13.6729 14.0311L12.2222 9.77509L25.6928 5L28.4905 21.8166L17.8176 25.5536L19.2683 29.8097Z" fill="black" />
        <path d="M31.4957 5H28.4907L33.5681 35H36.6767L31.4957 5Z" fill="black" />
      </g>
      <defs>
        <clipPath id="clip0">
          <rect x="3" y="5" width="33.6765" height="30" fill="white" />
        </clipPath>
      </defs>
    </g>
  </symbol>

  <symbol id="transfer" viewBox="0 0 40 40" 
    xmlns="http://www.w3.org/2000/svg">
    <g>
      <path d="M39.0308 21.9429V9.72297L35.1482 6H0L1.20752 8.36916H5.35025V16.4564L12.3725 30.1904H17.6112C17.6112 32.8446 19.8591 35 22.6271 35C25.3951 35 27.643 32.8446 27.643 30.1904C27.643 27.5362 25.3951 25.3808 22.6271 25.3808V23.5995C26.4169 23.5995 29.5007 26.5565 29.5007 30.1904H39.0308V27.1978H40V21.9429H39.0308ZM8.28545 18.1665V8.36916H15.7721V18.1665H8.28545ZM31.86 17.4183L30.7082 16.3139L33.2161 13.9269V13.6953H21.3824V14.0338L23.7975 16.3317L22.6457 17.4361L17.927 12.9115L22.6457 8.36916L23.7975 9.47359L21.3824 11.8071V12.1278H33.2161V11.8962L30.7082 9.47359L31.86 8.36916L36.5786 12.9115L31.86 17.4183Z" fill="black"/>
    </g>
  </symbol>

  <symbol id="spa" viewBox="0 0 40 40" 
    xmlns="http://www.w3.org/2000/svg">
    <g>
      <g clip-path="url(#clip0)">
        <path d="M34.6669 28.4409L36.4821 25.3114L34.5429 24.1958L35.0127 21.5792L22.7984 14.5564L7.4723 11.5991L3 20.2727L7.72786 23.5894L14.6054 25.5846L17.5519 33.9999L20.9794 32.8095L18.2848 25.1205L19.104 24.6338L27.1279 32.6261L29.6948 30.073L21.949 22.3578L22.6744 21.5455L34.6669 28.4409Z" fill="black" />
        <path d="M26.3761 14.1258L34.2721 12.3027L32.9342 8.7876L25.8086 12.6359L26.3761 14.1258Z" fill="black" />
        <path d="M30.6644 6.05141L27.5037 4L24.0273 11.296L25.369 12.1645L30.6644 6.05141Z" fill="black" />
      </g>
      <defs>
        <clipPath id="clip0">
          <rect x="3" y="4" width="33.4821" height="30" fill="white" />
        </clipPath>
      </defs>
    </g>
  </symbol>

  <symbol id="shopping" viewBox="0 0 42 42" 
    xmlns="http://www.w3.org/2000/svg">
    <g>
      <path d="M7 18.4263V35.8537H35V18.4263L7 18.4263ZM26.7409 24.5881V25.6098C26.7409 28.6334 24.2186 31.0926 21.1174 31.0926C18.0162 31.0926 15.4939 28.6334 15.4939 25.6098V24.5881C14.9312 24.3039 14.5425 23.7315 14.5425 23.0723C14.5425 22.1328 15.3239 21.371 16.2874 21.371C17.251 21.371 18.0324 22.1328 18.0324 23.0723C18.0324 23.7315 17.6478 24.3039 17.081 24.5881V25.6098C17.081 27.7769 18.8907 29.5413 21.1134 29.5413C23.336 29.5413 25.1457 27.7769 25.1457 25.6098V24.5881C24.583 24.3039 24.1943 23.7315 24.1943 23.0723C24.1943 22.1328 24.9757 21.371 25.9393 21.371C26.9028 21.371 27.6842 22.1328 27.6842 23.0723C27.6923 23.7315 27.3036 24.3039 26.7409 24.5881Z" fill="black" />
      <path d="M20.8745 6.32368V5.49868L25.1863 4.20395L26.5142 0H27.3603L28.6883 4.20395L33 5.49868V6.32368L28.6883 7.61842L27.3603 11.8224H26.5142L25.1863 7.61842L20.8745 6.32368Z" fill="black" />
      <path d="M15.9312 12.7536V12.1733L18.9797 11.2575L19.919 8.28516H20.5141L21.4534 11.2575L24.4979 12.1733V12.7536L21.4534 13.6694L20.5141 16.6417H19.919L18.9797 13.6694L15.9312 12.7536Z" fill="black" />
    </g>
  </symbol>

  <symbol id="visa" viewBox="0 0 29 21" 
    xmlns="http://www.w3.org/2000/svg">
    <path d="M26.8999 11.6V2.79998L24.1999 0.0999756H0.399902L7.79991 17.5H12.0999C12.0999 19.4 13.5999 21 15.5999 21C17.5999 21 19.0999 19.5 19.0999 17.5C19.0999 15.5 17.5999 14 15.5999 14V12.7C18.1999 12.7 20.2999 14.8 20.2999 17.4H26.8999V15.2H28.2999V11.4H26.8999V11.6ZM7.09991 8.69998H5.69991L2.99991 2.19998H4.59991L6.3999 6.49998L8.19991 2.19998H9.79991L7.09991 8.69998ZM11.8999 8.69998H10.3999V2.19998H11.8999V8.69998ZM15.1999 4.69998L16.2999 4.79997C17.5999 4.89997 18.2999 5.69998 18.2999 6.69998C18.2999 7.69998 17.4999 8.79997 15.5999 8.79997C13.6999 8.79997 12.8999 7.79997 12.6999 6.89997L12.5999 6.69998H14.0999V6.79997C14.2999 7.19997 14.7999 7.49998 15.4999 7.49998C16.1999 7.49998 16.5999 7.19998 16.5999 6.89997C16.5999 6.69998 16.4999 6.39997 15.6999 6.29997L14.5999 6.19998C13.2999 6.09998 12.5999 5.39997 12.5999 4.29997C12.5999 3.09997 13.5999 2.19998 15.1999 2.19998C16.7999 2.19998 17.7999 3.19998 18.0999 4.09998L18.1999 4.29997H16.6999V4.19998C16.4999 3.79998 15.9999 3.49998 15.2999 3.49998C14.6999 3.49998 14.1999 3.79998 14.1999 4.19998C14.4999 4.49998 14.6999 4.69998 15.1999 4.69998ZM23.8999 8.69998L23.2999 7.29997H20.6999L20.0999 8.69998H18.4999L21.2999 2.19998H22.6999V2.29998L25.4999 8.69998H23.8999Z" fill="black"/>
    <path d="M21.2 6H22.8999L22 4L21.2 6Z" fill="black"/>
  </symbol>

  <symbol id="party" viewBox="0 0 40 29" 
    xmlns="http://www.w3.org/2000/svg">
    <path d="M24.9122 7.34159C26.5271 7.34159 27.8362 6.03248 27.8362 4.41762C27.8362 2.80276 26.5271 1.49365 24.9122 1.49365C23.2974 1.49365 21.9883 2.80276 21.9883 4.41762C21.9883 6.03248 23.2974 7.34159 24.9122 7.34159Z" fill="black"/>
    <path d="M0 10.7335L6.31577 12.6049L6.78361 11.3183L1.16959 7.92651L0 10.7335Z" fill="black"/>
    <path d="M0 15.2949L1.16959 17.985L6.78361 14.5932L6.31577 13.4236L0 15.2949Z" fill="black"/>
    <path d="M30.6431 10.8504H34.2688L37.0758 5.7042L34.8536 4.41765L32.7484 8.27729H29.1226L20.4677 10.8504L11.111 8.04337L4.21044 1.25977L2.45605 3.01415L9.59054 10.1486V28.2772H12.1636V18.8036H12.9823L18.2455 28.2772H21.0525L15.0876 17.1662V11.903L20.4677 13.4235L25.38 12.02L28.5379 17.8679L25.146 21.2597V28.2772H27.7191V22.3123L31.2279 18.8036H31.9297L37.1928 28.2772H39.9998L30.6431 10.8504Z" fill="black"/>
    <path d="M16.489 7.10578C17.9681 6.45758 18.6416 4.73309 17.9934 3.25404C17.3452 1.77499 15.6207 1.10145 14.1417 1.74966C12.6626 2.39787 11.9891 4.12235 12.6373 5.6014C13.2855 7.08046 15.01 7.75399 16.489 7.10578Z" fill="black"/>
  </symbol>

  <symbol id="tickets" viewBox="0 0 27 36" 
    xmlns="http://www.w3.org/2000/svg">
    <path d="M27 36L23.6749 28.0746V20.1493L20.3498 13.7015L17.4236 19.8806L18.0886 22.8358L17.6896 23.1045L13.0345 15.8507L14.4976 14.9104L16.4927 18.1343L22.3448 5.77612L20.4828 4.83582C20.0838 5.77612 19.0197 6.04478 18.2217 5.64179C17.2907 5.23881 17.0246 4.16418 17.4236 3.35821L15.5616 2.41791C15.1626 3.35821 14.0985 3.62687 13.3005 3.22388C12.3695 2.8209 12.1035 1.74627 12.5025 0.9403L10.6404 0L0 22.5672L1.8621 23.5075C2.26112 22.5672 3.32509 22.2985 4.12312 22.7015C5.05416 23.1045 5.32022 24.1791 4.9212 24.9851L6.78322 25.9254C7.18224 24.9851 8.24629 24.7164 9.04432 25.1194C9.97536 25.5224 10.2414 26.597 9.8424 27.403L11.7044 28.3433L13.3005 24.8507H13.6995V29.8209L17.1577 33.5821V35.8657H27V36ZM8.3793 8.46269L9.97538 4.97015L18.6207 9.13433L17.0246 12.6269L8.3793 8.46269Z" fill="black"/>
  </symbol>

  <symbol id="tourist-attractions" viewBox="0 0 27 36" 
    xmlns="http://www.w3.org/2000/svg">
    <path d="M27 36L23.6749 28.0746V20.1493L20.3498 13.7015L17.4236 19.8806L18.0886 22.8358L17.6896 23.1045L13.0345 15.8507L14.4976 14.9104L16.4927 18.1343L22.3448 5.77612L20.4828 4.83582C20.0838 5.77612 19.0197 6.04478 18.2217 5.64179C17.2907 5.23881 17.0246 4.16418 17.4236 3.35821L15.5616 2.41791C15.1626 3.35821 14.0985 3.62687 13.3005 3.22388C12.3695 2.8209 12.1035 1.74627 12.5025 0.9403L10.6404 0L0 22.5672L1.8621 23.5075C2.26112 22.5672 3.32509 22.2985 4.12312 22.7015C5.05416 23.1045 5.32022 24.1791 4.9212 24.9851L6.78322 25.9254C7.18224 24.9851 8.24629 24.7164 9.04432 25.1194C9.97536 25.5224 10.2414 26.597 9.8424 27.403L11.7044 28.3433L13.3005 24.8507H13.6995V29.8209L17.1577 33.5821V35.8657H27V36ZM8.3793 8.46269L9.97538 4.97015L18.6207 9.13433L17.0246 12.6269L8.3793 8.46269Z" fill="black"/>
  </symbol>

  <symbol id="river-cruises" viewBox="0 0 28 20" 
    xmlns="http://www.w3.org/2000/svg">
    <path d="M20.7999 9.30005V3.30005H14.7999V0.300049H0.399902L2.59985 5.60005H6.59985V9.40005H4.19989L8.3999 19.2001H23.8999L27.9999 9.40005H20.7999V9.30005ZM12.5999 9.30005H8.79987V5.50005H12.5999V9.30005ZM14.7999 5.60005H18.5999V9.40005H14.7999V5.60005ZM19.6999 17.1C18.0999 17.1 16.7999 15.8 16.7999 14.2H17.8999C17.8999 15 18.3999 15.7 19.1999 15.9V13.4C18.8999 13.2 18.5999 12.8 18.5999 12.4C18.5999 11.8 19.0999 11.3 19.6999 11.3C20.2999 11.3 20.7999 11.8 20.7999 12.4C20.7999 12.8 20.5999 13.2 20.1999 13.4V15.9C20.8999 15.7 21.4999 15 21.4999 14.2H22.5999C22.5999 15.8 21.2999 17.1 19.6999 17.1Z" fill="black"/>
  </symbol>
  
  <symbol id="yacht-rental" viewBox="0 0 28 20" 
    xmlns="http://www.w3.org/2000/svg">
    <path d="M20.7999 9.30005V3.30005H14.7999V0.300049H0.399902L2.59985 5.60005H6.59985V9.40005H4.19989L8.3999 19.2001H23.8999L27.9999 9.40005H20.7999V9.30005ZM12.5999 9.30005H8.79987V5.50005H12.5999V9.30005ZM14.7999 5.60005H18.5999V9.40005H14.7999V5.60005ZM19.6999 17.1C18.0999 17.1 16.7999 15.8 16.7999 14.2H17.8999C17.8999 15 18.3999 15.7 19.1999 15.9V13.4C18.8999 13.2 18.5999 12.8 18.5999 12.4C18.5999 11.8 19.0999 11.3 19.6999 11.3C20.2999 11.3 20.7999 11.8 20.7999 12.4C20.7999 12.8 20.5999 13.2 20.1999 13.4V15.9C20.8999 15.7 21.4999 15 21.4999 14.2H22.5999C22.5999 15.8 21.2999 17.1 19.6999 17.1Z" fill="black"/>
  </symbol>

  <symbol id="things-to-do" viewBox="0 0 29 22" 
    xmlns="http://www.w3.org/2000/svg">
    <path d="M26.0001 10.2H23.8001V19H18.9001V10.2H16.6001V19H11.7001V10.2H9.50012V19H4.6001V10.2H2.40015V19H0.100098V21.2H28.3001V19H26.0001V10.2Z" fill="black"/>
    <path d="M14.2001 0.0999756L0.100098 6.49998V7.89997H28.3001V6.49998L14.2001 0.0999756ZM14.2001 6.19998C13.2001 6.19998 12.3001 5.39997 12.3001 4.29997C12.3001 3.19997 13.1001 2.39997 14.2001 2.39997C15.3001 2.39997 16.1001 3.19997 16.1001 4.29997C16.1001 5.39997 15.2001 6.19998 14.2001 6.19998Z" fill="black"/>
  </symbol>

  <!--  -->
  <symbol id="activities" viewBox="0 0 22 25" 
    xmlns="http://www.w3.org/2000/svg">
    <path d="M6.6998 11.1999C6.6998 10.3999 6.8998 9.49993 7.2998 8.79993L7.3998 8.59993L4.7998 4.89993L4.1998 5.29993L2.0998 2.29993L0.299805 3.59993L3.2998 7.79993C3.0998 8.69993 2.9998 9.59993 2.9998 10.4999C2.9998 13.9999 4.4998 16.9999 6.8998 19.1999V24.1999H8.9998V20.7999H9.7998V16.1999L9.5998 16.0999C7.8998 15.1999 6.6998 13.1999 6.6998 11.1999Z" fill="black"/>
    <path d="M20.1998 2.99995L13.4998 7.79995L12.1998 7.39995L7.0998 0.199951L5.2998 1.49995L9.7998 7.79995C8.9998 8.99995 8.6998 9.59995 8.6998 9.59995C8.4998 9.99995 8.4998 10.2 8.3998 10.5C8.3998 10.7 8.2998 11 8.2998 11.2C8.2998 12.5 8.9998 13.8 10.0998 14.5C10.3998 14.3 10.6998 14.1 10.9998 13.9C12.1998 12.9 13.2998 11.7 13.9998 10.3C13.9998 10.2 14.0998 10.1 14.0998 10.1L14.8998 9.49995L21.2998 4.89995L20.1998 2.99995Z" fill="black"/>
    <path d="M11.4 2.19995C11.2 2.49995 11.1 2.89995 11.1 3.29995C11.1 4.69995 12.2 5.79995 13.6 5.79995C15 5.79995 16.1 4.69995 16.1 3.29995C16.1 1.89995 15 0.699951 13.6 0.699951C13.2 0.699951 12.9 0.799951 12.5 0.999951L11.7 0.199951L10.5 1.39995L11.4 2.19995Z" fill="black"/>
  </symbol>

  <!-- </Divisons> -->

  <symbol id="main-logo" viewBox="0 0 86 13" 
    xmlns="http://www.w3.org/2000/svg">
    <!-- width="86" height="13" fill="none" ==> viewBox="0 0 24 24" высота и ширина -->
    <path fill-rule="evenodd" clip-rule="evenodd" d="M24.255 3.86599L20.4652 7.39214V0.254883H18.9492V11.8954H20.4652V8.62416L24.255 11.8954H26.2342L21.8548 7.90194L26.2342 3.86599H24.255ZM0 0.339844H9.51676V1.78429H5.51635V11.8954H3.9583V1.78429H0V0.339844ZM8.84302 6.20258C9.30622 4.54572 10.9064 3.65356 12.7171 3.65356C14.991 3.65356 16.507 4.80062 16.507 6.79736V11.8954H15.0331V11.0457C14.4015 11.7255 13.5172 12.1503 12.2539 12.1503C10.359 12.1503 9.01146 11.2581 9.01146 9.47383C9.01146 7.51958 10.6537 6.88232 12.5065 6.88232H15.0331C15.0331 5.52285 14.0225 5.05552 12.7171 5.05552C11.7486 5.05552 10.8222 5.43788 10.4853 6.20258H8.84302ZM12.4223 10.7483C14.0225 10.7483 15.0331 9.89866 15.0331 8.70912V8.19932H12.5065C11.2854 8.19932 10.5274 8.58167 10.5274 9.47383C10.5274 10.366 11.2854 10.7483 12.4223 10.7483ZM26.866 7.85945C26.866 5.48036 28.5504 3.65356 30.9506 3.65356C33.2245 3.65356 34.8668 5.48036 34.8668 7.732C34.8668 7.94441 34.8668 8.19932 34.8247 8.41173H28.424C28.5925 9.72873 29.6452 10.7059 31.0348 10.7059C32.0033 10.7059 32.7192 10.366 33.1403 9.64376H34.7405C34.193 11.1732 32.7613 12.1078 31.0348 12.1078C28.6346 12.1078 26.866 10.3235 26.866 7.85945ZM30.9506 5.05552C29.561 5.05552 28.6346 5.86271 28.424 7.13722H33.3087C33.0982 5.9052 32.256 5.05552 30.9506 5.05552ZM39.5408 1.78429H43.4991V11.8954H45.0571V1.78429H49.0154V0.339844H39.5408V1.78429ZM51.1211 3.86597V5.01303C51.5843 4.37577 52.4686 3.82349 53.9003 3.82349H54.3635V5.22545H53.9003C52.1738 5.22545 51.1211 6.37251 51.1211 8.02937V11.8954H49.6472V3.86597H51.1211ZM59.5008 3.65356C57.6901 3.65356 56.0899 4.54572 55.6267 6.20258H57.269C57.6059 5.43788 58.5323 5.05552 59.5008 5.05552C60.8062 5.05552 61.8168 5.52285 61.8168 6.88232H59.2902C57.4374 6.88232 55.7951 7.51958 55.7951 9.47383C55.7951 11.2581 57.1427 12.1503 59.0376 12.1503C60.3009 12.1503 61.1852 11.7255 61.8168 11.0457V11.8954H63.2907V6.79736C63.2907 4.80062 61.7326 3.65356 59.5008 3.65356ZM61.8168 8.70912C61.8168 9.89866 60.8062 10.7483 59.206 10.7483C58.0691 10.7483 57.3111 10.366 57.3111 9.47383C57.3111 8.58167 58.0691 8.19932 59.2902 8.19932H61.8168V8.70912ZM66.1961 3.86597L68.849 9.94113L71.5019 3.86597H73.1021L69.5228 11.8954H68.0489L64.5117 3.86597H66.1961ZM77.9027 3.65356C75.5025 3.65356 73.8181 5.48036 73.8181 7.85945C73.8181 10.3235 75.5867 12.1078 77.987 12.1078C79.7134 12.1078 81.1452 11.1732 81.6926 9.64376H80.0924C79.6713 10.366 78.9555 10.7059 77.987 10.7059C76.5973 10.7059 75.5446 9.72873 75.3762 8.41173H81.7768C81.8189 8.19932 81.8189 7.94441 81.8189 7.732C81.8189 5.48036 80.1767 3.65356 77.9027 3.65356ZM75.3762 7.13722C75.5867 5.86271 76.5131 5.05552 77.9027 5.05552C79.2081 5.05552 80.0503 5.9052 80.2609 7.13722H75.3762ZM83.8823 0.254883H85.3562V11.9379H83.8823V0.254883Z" fill="black"/>
  </symbol>

  <symbol id="main-logo-white" viewBox="0 0 86 13" 
    xmlns="http://www.w3.org/2000/svg">
    <path fill-rule="evenodd" clip-rule="evenodd" d="M24.255 3.86599L20.4652 7.39214V0.254883H18.9492V11.8954H20.4652V8.62416L24.255 11.8954H26.2342L21.8548 7.90194L26.2342 3.86599H24.255ZM0 0.339844H9.51676V1.78429H5.51635V11.8954H3.9583V1.78429H0V0.339844ZM8.84302 6.20258C9.30622 4.54572 10.9064 3.65356 12.7171 3.65356C14.991 3.65356 16.507 4.80062 16.507 6.79736V11.8954H15.0331V11.0457C14.4015 11.7255 13.5172 12.1503 12.2539 12.1503C10.359 12.1503 9.01146 11.2581 9.01146 9.47383C9.01146 7.51958 10.6537 6.88232 12.5065 6.88232H15.0331C15.0331 5.52285 14.0225 5.05552 12.7171 5.05552C11.7486 5.05552 10.8222 5.43788 10.4853 6.20258H8.84302ZM12.4223 10.7483C14.0225 10.7483 15.0331 9.89866 15.0331 8.70912V8.19932H12.5065C11.2854 8.19932 10.5274 8.58167 10.5274 9.47383C10.5274 10.366 11.2854 10.7483 12.4223 10.7483ZM26.866 7.85945C26.866 5.48036 28.5504 3.65356 30.9506 3.65356C33.2245 3.65356 34.8668 5.48036 34.8668 7.732C34.8668 7.94441 34.8668 8.19932 34.8247 8.41173H28.424C28.5925 9.72873 29.6452 10.7059 31.0348 10.7059C32.0033 10.7059 32.7192 10.366 33.1403 9.64376H34.7405C34.193 11.1732 32.7613 12.1078 31.0348 12.1078C28.6346 12.1078 26.866 10.3235 26.866 7.85945ZM30.9506 5.05552C29.561 5.05552 28.6346 5.86271 28.424 7.13722H33.3087C33.0982 5.9052 32.256 5.05552 30.9506 5.05552ZM39.5408 1.78429H43.4991V11.8954H45.0571V1.78429H49.0154V0.339844H39.5408V1.78429ZM51.1211 3.86597V5.01303C51.5843 4.37577 52.4686 3.82349 53.9003 3.82349H54.3635V5.22545H53.9003C52.1738 5.22545 51.1211 6.37251 51.1211 8.02937V11.8954H49.6472V3.86597H51.1211ZM59.5008 3.65356C57.6901 3.65356 56.0899 4.54572 55.6267 6.20258H57.269C57.6059 5.43788 58.5323 5.05552 59.5008 5.05552C60.8062 5.05552 61.8168 5.52285 61.8168 6.88232H59.2902C57.4374 6.88232 55.7951 7.51958 55.7951 9.47383C55.7951 11.2581 57.1427 12.1503 59.0376 12.1503C60.3009 12.1503 61.1852 11.7255 61.8168 11.0457V11.8954H63.2907V6.79736C63.2907 4.80062 61.7326 3.65356 59.5008 3.65356ZM61.8168 8.70912C61.8168 9.89866 60.8062 10.7483 59.206 10.7483C58.0691 10.7483 57.3111 10.366 57.3111 9.47383C57.3111 8.58167 58.0691 8.19932 59.2902 8.19932H61.8168V8.70912ZM66.1961 3.86597L68.849 9.94113L71.5019 3.86597H73.1021L69.5228 11.8954H68.0489L64.5117 3.86597H66.1961ZM77.9027 3.65356C75.5025 3.65356 73.8181 5.48036 73.8181 7.85945C73.8181 10.3235 75.5867 12.1078 77.987 12.1078C79.7134 12.1078 81.1452 11.1732 81.6926 9.64376H80.0924C79.6713 10.366 78.9555 10.7059 77.987 10.7059C76.5973 10.7059 75.5446 9.72873 75.3762 8.41173H81.7768C81.8189 8.19932 81.8189 7.94441 81.8189 7.732C81.8189 5.48036 80.1767 3.65356 77.9027 3.65356ZM75.3762 7.13722C75.5867 5.86271 76.5131 5.05552 77.9027 5.05552C79.2081 5.05552 80.0503 5.9052 80.2609 7.13722H75.3762ZM83.8823 0.254883H85.3562V11.9379H83.8823V0.254883Z" fill="white"/>
  </symbol>

  <symbol id="burger" viewBox="0 0 24 24" 
    xmlns="http://www.w3.org/2000/svg">
    <!-- fill="black" -->
    <g>
      <rect y="3.08789" width="24" height="1.84868" />
      <rect y="11.4097" width="24" height="1.84868" />
      <rect y="19.7319" width="24" height="1.84868" />
    </g>
  </symbol>

  <symbol id="random-cube-mobile" viewBox="0 0 34 34" 
    xmlns="http://www.w3.org/2000/svg">
    <g>
      <circle cx="17" cy="17" r="17" fill="#E1E7EB"/>
      <rect x="9.75" y="9.75" width="14.5" height="14.5" stroke="black" stroke-width="1.5"/>
      <path fill-rule="evenodd" clip-rule="evenodd" d="M20.5 14.5C21.3284 14.5 22 13.8284 22 13C22 12.1716 21.3284 11.5 20.5 11.5C19.6716 11.5 19 12.1716 19 13C19 13.8284 19.6716 14.5 20.5 14.5ZM18.5 17C18.5 17.8284 17.8284 18.5 17 18.5C16.1716 18.5 15.5 17.8284 15.5 17C15.5 16.1716 16.1716 15.5 17 15.5C17.8284 15.5 18.5 16.1716 18.5 17ZM15 21C15 21.8284 14.3284 22.5 13.5 22.5C12.6716 22.5 12 21.8284 12 21C12 20.1716 12.6716 19.5 13.5 19.5C14.3284 19.5 15 20.1716 15 21Z" fill="black"/>
    </g>
  </symbol>

  <symbol id="arrow-logo" viewBox="0 0 18 18" 
    xmlns="http://www.w3.org/2000/svg">
    <g clip-path="url(#clip0)">
      <path d="M15.3484 15.3487C11.838 18.859 6.1617 18.8964 2.65132 15.386C-0.859049 11.8756 -0.85905 6.19929 2.68867 2.68891C6.23639 -0.858805 11.8754 -0.858805 15.3858 2.65157C18.8961 6.16194 18.8588 11.8009 15.3484 15.3487ZM14.3028 14.303C17.3277 11.2781 17.4024 6.57273 14.4148 3.58518C11.4273 0.597626 6.72186 0.672315 3.69697 3.69721C0.672071 6.72211 0.597382 11.4275 3.58493 14.4151C6.57249 17.4026 11.2779 17.3279 14.3028 14.303Z" fill="black"/>
      <path d="M14.9378 9.00002L10.0084 13.9295L9.18679 13.1079L12.3237 9.93363V9.59753H3.28638V8.40251H12.3237V8.06641L9.18679 4.89213L10.0084 4.07056L14.9378 9.00002Z" fill="black"/>
    </g>
    <defs>
      <clipPath id="clip0">
        <rect width="18" height="18" fill="white"/>
      </clipPath>
    </defs>
  </symbol>

  <symbol id="arrow-logo-mini" viewBox="0 0 18 18" 
    xmlns="http://www.w3.org/2000/svg">
    <path fill-rule="evenodd" clip-rule="evenodd" d="M6.59938 0C8.32587 0 9.92603 0.679739 11.1472 1.91176C12.3684 3.14379 13 4.75817 13 6.5C13 8.24183 12.3684 9.85621 11.1472 11.0882C9.92603 12.3203 8.32587 13 6.59938 13C4.87289 13 3.27273 12.3203 2.05155 11.0882C0.87249 9.89869 0.19873 8.24183 0.19873 6.5C0.19873 4.75817 0.830376 3.14379 2.05155 1.91176C3.27273 0.679739 4.87289 0 6.59938 0ZM1.3778 6.5C1.3778 9.51634 3.69382 11.8529 6.59938 11.8529C9.50494 11.8529 11.821 9.51634 11.821 6.5C11.821 3.48366 9.50494 1.14706 6.59938 1.14706C3.65171 1.14706 1.3778 3.48366 1.3778 6.5ZM7.69408 4.41829H4.53587V3.44116H9.67323V8.58169H8.66261V5.43789L8.53628 5.31044L4.03056 9.81371L3.3147 9.09149L7.77831 4.54574L7.69408 4.41829Z" fill="black"/>
  </symbol>

  <symbol id="arrow-logo-mini-white" viewBox="0 0 18 18" 
    xmlns="http://www.w3.org/2000/svg">
    <path fill-rule="evenodd" clip-rule="evenodd" d="M6.59938 0C8.32587 0 9.92603 0.679739 11.1472 1.91176C12.3684 3.14379 13 4.75817 13 6.5C13 8.24183 12.3684 9.85621 11.1472 11.0882C9.92603 12.3203 8.32587 13 6.59938 13C4.87289 13 3.27273 12.3203 2.05155 11.0882C0.872487 9.89869 0.19873 8.24183 0.19873 6.5C0.19873 4.75817 0.830377 3.14379 2.05155 1.91176C3.27273 0.679739 4.87289 0 6.59938 0ZM1.3778 6.5C1.3778 9.51634 3.69382 11.8529 6.59938 11.8529C9.50494 11.8529 11.821 9.51634 11.821 6.5C11.821 3.48366 9.50494 1.14706 6.59938 1.14706C3.65171 1.14706 1.3778 3.48366 1.3778 6.5ZM7.69409 4.41829H4.53587V3.44116H9.67323V8.58169H8.66261V5.43789L8.53628 5.31044L4.03056 9.81371L3.3147 9.09149L7.7783 4.54574L7.69409 4.41829Z" fill="white"/>
  </symbol>

  <symbol id="random-cube-black" viewBox="0 0 20 20" 
    xmlns="http://www.w3.org/2000/svg">
    <path fill-rule="evenodd" clip-rule="evenodd" d="M20 0H0V20H20V0ZM15.752 5.37179C15.752 6.3303 14.975 7.10733 14.0165 7.10733C13.058 7.10733 12.281 6.3303 12.281 5.37179C12.281 4.41328 13.058 3.63625 14.0165 3.63625C14.975 3.63625 15.752 4.41328 15.752 5.37179ZM9.9671 11.7351C10.9256 11.7351 11.7026 10.9581 11.7026 9.99959C11.7026 9.04108 10.9256 8.26405 9.9671 8.26405C9.00859 8.26405 8.23157 9.04108 8.23157 9.99959C8.23157 10.9581 9.00859 11.7351 9.9671 11.7351ZM5.91737 16.3636C6.87588 16.3636 7.6529 15.5866 7.6529 14.628C7.6529 13.6695 6.87588 12.8925 5.91737 12.8925C4.95886 12.8925 4.18183 13.6695 4.18183 14.628C4.18183 15.5866 4.95886 16.3636 5.91737 16.3636Z" fill="black"/>
  </symbol>

  <symbol id="random-cube-white" viewBox="0 0 20 20" 
    xmlns="http://www.w3.org/2000/svg">
    <path fill-rule="evenodd" clip-rule="evenodd" d="M20 0H0V20H20V0ZM15.752 5.37179C15.752 6.3303 14.975 7.10733 14.0165 7.10733C13.058 7.10733 12.281 6.3303 12.281 5.37179C12.281 4.41328 13.058 3.63625 14.0165 3.63625C14.975 3.63625 15.752 4.41328 15.752 5.37179ZM9.9671 11.7351C10.9256 11.7351 11.7026 10.9581 11.7026 9.99959C11.7026 9.04108 10.9256 8.26405 9.9671 8.26405C9.00859 8.26405 8.23157 9.04108 8.23157 9.99959C8.23157 10.9581 9.00859 11.7351 9.9671 11.7351ZM5.91737 16.3636C6.87588 16.3636 7.6529 15.5866 7.6529 14.628C7.6529 13.6695 6.87588 12.8925 5.91737 12.8925C4.95886 12.8925 4.18183 13.6695 4.18183 14.628C4.18183 15.5866 4.95886 16.3636 5.91737 16.3636Z" fill="white"/>
  </symbol>

  <symbol id="basket-white" viewBox="0 0 24 25" 
    xmlns="http://www.w3.org/2000/svg">
    <path d="M19.1999 10.3L13.3999 0.300049L11.8999 1.20005L17.1999 10.3H6.69991L11.9999 1.20005L10.4999 0.300049L4.69991 10.3H0.399902L2.69991 24.2001H21.2999L23.5999 10.3H19.1999ZM3.99991 22.5L2.29991 12H21.4999L19.7999 22.5H3.99991Z" fill="black"/>
  </symbol>

  <symbol id="basket" viewBox="0 0 32 34" 
    xmlns="http://www.w3.org/2000/svg">
    <path d="M25.9571 14.2857L17.9914 0L15.9313 1.28571L23.2103 14.2857H8.7897L15.9313 1.28571L13.8712 0L5.90558 14.2857H0L3.1588 34H28.7039L32 14.2857H25.9571Z"/>
  </symbol>

  <symbol id="cart" viewBox="0 0 20 20" 
    xmlns="http://www.w3.org/2000/svg">
    <path fill-rule="evenodd" clip-rule="evenodd" d="M5.49242 13.8488L2.08147 2.74156C2.08147 2.74156 1.30387 2.66876 0.86887 2.65813C-0.0184623 2.63595 -0.446303 0.30852 0.669042 0.246123C1.00609 0.227404 3.82657 0 3.82657 0L4.92713 4.47482L20 5.28368L18.1731 13.4337L5.49242 13.8488ZM5.75671 15.1813C8.85417 15.1813 8.93225 19.9156 5.97155 19.9156C2.45988 19.9159 2.71838 15.1813 5.75671 15.1813ZM16.2134 15.2657C19.3109 15.2657 19.3885 20 16.4283 20C12.9164 20 13.1746 15.2657 16.2134 15.2657Z"/>
  </symbol>

  <symbol id="search-mobile" viewBox="0 0 35 34" 
    xmlns="http://www.w3.org/2000/svg">
    <g>
      <rect x="0.0498047" width="34" height="34" rx="17" fill="#E1E7EB" />
      <g clip-path="url(#clip0)">
        <g clip-path="url(#clip1)">
          <path d="M23.8494 24L25 22.8494L20.9091 18.7727V17.5227C21.3494 16.7131 21.5909 15.7756 21.5909 14.7955C21.5909 11.5994 19.0057 9 15.7955 9C12.5852 9 10 11.5994 10 14.7955C10 17.9915 12.5994 20.5909 15.7955 20.5909C16.7756 20.5909 17.7131 20.3494 18.5227 19.9091H19.7585L23.8494 24ZM11.5625 14.7955C11.5625 12.4659 13.4659 10.5625 15.7955 10.5625C18.125 10.5625 20.0284 12.4659 20.0284 14.7955C20.0284 17.125 18.1392 19.0284 15.7955 19.0284C13.4517 19.0284 11.5625 17.1392 11.5625 14.7955Z" fill="black" />
        </g>
      </g>
      <defs>
        <clipPath id="clip0">
          <rect x="10.0498" y="9" width="15" height="15" fill="white" />
        </clipPath>
        <clipPath id="clip1">
          <rect x="10.0498" y="9" width="15" height="15" fill="white" />
        </clipPath>
      </defs>
    </g>
  </symbol>

  <symbol id="search-min" viewBox="0 0 12 12" 
    xmlns="http://www.w3.org/2000/svg">
    <path d="M11.0795 12L12 11.0795L8.72727 7.81818V6.81818C9.07955 6.17045 9.27273 5.42045 9.27273 4.63636C9.27273 2.07955 7.20455 0 4.63636 0C2.06818 0 0 2.07955 0 4.63636C0 7.19318 2.07955 9.27273 4.63636 9.27273C5.42045 9.27273 6.17045 9.07955 6.81818 8.72727H7.80682L11.0795 12ZM1.25 4.63636C1.25 2.77273 2.77273 1.25 4.63636 1.25C6.5 1.25 8.02273 2.77273 8.02273 4.63636C8.02273 6.5 6.51136 8.02273 4.63636 8.02273C2.76136 8.02273 1.25 6.51136 1.25 4.63636Z" fill="black"/>
  </symbol>

  <symbol id="search-min-white" viewBox="0 0 12 12" 
    xmlns="http://www.w3.org/2000/svg">
    <path d="M11.0795 12L12 11.0795L8.72727 7.81818V6.81818C9.07955 6.17045 9.27273 5.42045 9.27273 4.63636C9.27273 2.07955 7.20455 0 4.63636 0C2.06818 0 0 2.07955 0 4.63636C0 7.19318 2.07955 9.27273 4.63636 9.27273C5.42045 9.27273 6.17045 9.07955 6.81818 8.72727H7.80682L11.0795 12ZM1.25 4.63636C1.25 2.77273 2.77273 1.25 4.63636 1.25C6.5 1.25 8.02273 2.77273 8.02273 4.63636C8.02273 6.5 6.51136 8.02273 4.63636 8.02273C2.76136 8.02273 1.25 6.51136 1.25 4.63636Z" fill="white"/>
  </symbol>

  <symbol id="add" viewBox="0 0 24 24" 
    xmlns="http://www.w3.org/2000/svg">
    <g>
      <path d="M11.996 21.0856L2.99483 12.0821C2.9947 12.0819 2.99457 12.0818 2.99445 12.0817C0.349146 9.42746 0.474009 6.15165 2.55387 4.07065C4.64777 1.98449 8.03141 1.98655 10.1144 4.07004L11.2888 5.24481L11.996 5.95219L12.7032 5.24481L13.8777 4.07004C15.9703 1.97686 19.353 1.97665 21.4459 4.06943C23.5285 6.1606 23.6503 9.43626 20.9993 12.08L20.9983 12.081L11.996 21.0856Z" stroke="black" stroke-width="2"/>
    </g>
  </symbol>

  <symbol id="star" viewBox="0 0 14 10" 
    xmlns="http://www.w3.org/2000/svg">
    <path d="M3.0357 1.32062L0 7.23251L2.08324 8.30223L5.11894 2.39034L3.0357 1.32062Z" />
    <path d="M12.9456 5.31646L9.90761 3.73418L11.8696 1.01266L10.4139 0L9.2747 1.70886L5.92027 3.16456L3.70508 7.46835L5.92027 9.05063L9.2747 10L10.0975 8.86076L10.857 9.11392L11.6798 7.97468L12.376 8.16456L13.1987 7.02532L12.9456 5.31646Z"/>
  </symbol>

  <symbol id="lightning" viewBox="0 0 10 18" 
    xmlns="http://www.w3.org/2000/svg">
    <path d="M4.05865 0L6.79453 0.788449L5.43957 6.26671L7.94184 7.0026L5.08655 14.7352L5.58493 14.8988L8.27409 13.1817L9.00608 14.5542L3.51355 18L0.300049 11.9844L1.6031 11.2018L3.12938 14.1862L3.56027 14.303L4.7543 8.91239L3.04632 8.4218L4.05865 0Z"/>
  </symbol>

  <symbol id="lightning-with-shadow" viewBox="0 0 32 27" 
    xmlns="http://www.w3.org/2000/svg">
    <path d="M13.4019 1.5C14.5566 -0.499999 17.4434 -0.5 18.5981 1.5L30.7224 22.5C31.8771 24.5 30.4338 27 28.1244 27H3.87565C1.56624 27 0.122867 24.5 1.27757 22.5L13.4019 1.5Z" fill="#E1E7EB"/>
    <path d="M18.3824 19.5068L16.3235 20.7397H15.9118L18.5882 14.1644L16.5294 13.5479L17.7647 8.61644L15.2941 8L14.4706 15.1918L15.9118 15.6027L14.6765 20.3288H14.2647L13.0294 18.0685L12 18.6849L14.6765 23L19 20.5342L18.3824 19.5068Z" fill="black"/>
  </symbol>

  <symbol id="add-favorite" viewBox="0 0 24 24" 
    xmlns="http://www.w3.org/2000/svg">
    <g>
      <path d="M11.996 21.0856L2.99483 12.0821C2.9947 12.0819 2.99457 12.0818 2.99445 12.0817C0.349146 9.42746 0.474009 6.15165 2.55387 4.07065C4.64777 1.98449 8.03141 1.98655 10.1144 4.07004L11.2888 5.24481L11.996 5.95219L12.7032 5.24481L13.8777 4.07004C15.9703 1.97686 19.353 1.97665 21.4459 4.06943C23.5285 6.1606 23.6503 9.43626 20.9993 12.08L20.9983 12.081L11.996 21.0856Z" stroke="black" stroke-width="2"/>
    </g>
  </symbol>

  <symbol id="add-favorite-white" viewBox="0 0 30 26" 
    xmlns="http://www.w3.org/2000/svg">
    <path d="M3.89258 12.9159C0.709161 9.72148 0.884706 5.83195 3.34691 3.36812C5.83734 0.887031 9.86093 0.890093 12.3373 3.36713L13.7914 4.8216L14.8522 5.88267L15.913 4.8216L17.3671 3.36713C19.8557 0.877886 23.8779 0.877623 26.3668 3.36634C28.8331 5.84313 29.004 9.73252 25.8142 12.9136L25.8126 12.9151L14.8522 23.8784L3.89337 12.9167C3.89311 12.9165 3.89285 12.9162 3.89258 12.9159Z" stroke="white" stroke-width="3"/>
  </symbol>

  <symbol id="favorite" viewBox="0 0 24 24" 
    xmlns="http://www.w3.org/2000/svg">
    <path d="M22.1537 3.36303C19.6703 0.87899 15.6539 0.87899 13.1705 3.36303L11.996 4.53779L10.8216 3.36303C8.34713 0.887958 4.33067 0.887958 1.84727 3.36303C-0.663022 5.87397 -0.707849 9.78387 2.28657 12.788L11.996 22.5L21.7055 12.788C24.7089 9.79284 24.664 5.88294 22.1537 3.36303Z" fill="#F14165"/>
  </symbol>

  <symbol id="arrowContainer-white" viewBox="0 0 335 43" 
    xmlns="http://www.w3.org/2000/svg">
    <path d="M320.374 2.28345L332.583 19.7835C333.303 20.8147 333.303 22.1853 332.583 23.2165L320.374 40.7165C319.813 41.5208 318.894 42 317.913 42H4C2.34315 42 1 40.6569 1 39V4C1 2.34314 2.34314 1 4 1H317.913C318.894 1 319.813 1.47924 320.374 2.28345Z" fill="white" stroke="black" stroke-width="2"/>
    <path fill-rule="evenodd" clip-rule="evenodd" d="M311.396 6H316.319L327.092 21.4286L316.918 36H311.995L322.169 21.4286L311.396 6Z" fill="black"/>
  </symbol>

  <symbol id="arrowContainer-white-mini" viewBox="0 0 248 43" 
    xmlns="http://www.w3.org/2000/svg">
    <path d="M233.374 2.28345L245.583 19.7835C246.303 20.8147 246.303 22.1853 245.583 23.2165L233.374 40.7165C232.813 41.5208 231.894 42 230.913 42H4C2.34315 42 1 40.6569 1 39V4C1 2.34315 2.34315 1 4 1H230.913C231.894 1 232.813 1.47924 233.374 2.28345Z" fill="white" stroke="black" stroke-width="2"/>
    <path fill-rule="evenodd" clip-rule="evenodd" d="M225 6H229.923L240.696 21.4286L229.823 37H224.9L235.773 21.4286L225 6Z" fill="black"/>
  </symbol>

  <symbol id="arrowContainer-orange" viewBox="0 0 335 43" 
    xmlns="http://www.w3.org/2000/svg">
    <path d="M320.374 2.28345L332.583 19.7835C333.303 20.8147 333.303 22.1853 332.583 23.2165L320.374 40.7165C319.813 41.5208 318.894 42 317.913 42H4C2.34315 42 1 40.6569 1 39V4C1 2.34314 2.34314 1 4 1H317.913C318.894 1 319.813 1.47924 320.374 2.28345Z" fill="#FFB800" stroke="black" stroke-width="2"/>
    <path fill-rule="evenodd" clip-rule="evenodd" d="M311.396 6H316.319L327.092 21.4286L316.918 36H311.995L322.169 21.4286L311.396 6Z" fill="black"/>
  </symbol>

  <symbol id="arrowContainer-orange-mini" viewBox="0 0 248 43" 
    xmlns="http://www.w3.org/2000/svg">
    <path d="M233.374 2.28345L245.583 19.7835C246.303 20.8147 246.303 22.1853 245.583 23.2165L233.374 40.7165C232.813 41.5208 231.894 42 230.913 42H4C2.34315 42 1 40.6569 1 39V4C1 2.34315 2.34315 1 4 1H230.913C231.894 1 232.813 1.47924 233.374 2.28345Z" fill="#FFB800" stroke="black" stroke-width="2"/>
    <path fill-rule="evenodd" clip-rule="evenodd" d="M225 6H229.923L240.696 21.4286L229.823 37H224.9L235.773 21.4286L225 6Z" fill="black"/>
  </symbol>

  <svg id="arrowContainer-disabled" viewBox="0 0 335 43" 
    xmlns="http://www.w3.org/2000/svg">
    <path d="M320.374 2.28345L332.583 19.7835C333.303 20.8147 333.303 22.1853 332.583 23.2165L320.374 40.7165C319.813 41.5208 318.894 42 317.913 42H4C2.34315 42 1 40.6569 1 39V4C1 2.34314 2.34314 1 4 1H317.913C318.894 1 319.813 1.47924 320.374 2.28345Z" fill="#E1E7EB"/>
    <path fill-rule="evenodd" clip-rule="evenodd" d="M311.396 6H316.319L327.092 21.4286L316.918 36H311.995L322.169 21.4286L311.396 6Z" fill="white"/>
  </svg>

  <symbol id="arrowContainer-disabled-mini" viewBox="0 0 248 43" 
    xmlns="http://www.w3.org/2000/svg">
    <path d="M233.374 2.28345L245.583 19.7835C246.303 20.8147 246.303 22.1853 245.583 23.2165L233.374 40.7165C232.813 41.5208 231.894 42 230.913 42H4C2.34315 42 1 40.6569 1 39V4C1 2.34315 2.34315 1 4 1H230.913C231.894 1 232.813 1.47924 233.374 2.28345Z" fill="#E1E7EB"/>
    <path fill-rule="evenodd" clip-rule="evenodd" d="M225 6H229.923L240.696 21.4286L229.823 37H224.9L235.773 21.4286L225 6Z" fill="white"/>
  </symbol>

  <symbol id="apple-logo-black" viewBox="0 0 18 21" 
    xmlns="http://www.w3.org/2000/svg">
    <g>
      <path d="M17.5006 15.4066C16.8128 17.4017 14.7539 20.9342 12.6328 20.9727C11.2257 20.9998 10.7733 20.1388 9.16505 20.1388C7.55762 20.1388 7.05448 20.9464 5.72443 20.9989C3.47386 21.0856 0 15.9001 0 11.378C0 7.22423 2.89459 5.16529 5.42343 5.12767C6.77972 5.10317 8.06076 6.04207 8.88766 6.04207C9.71806 6.04207 11.2739 4.91328 12.9093 5.07866C13.5936 5.10754 15.516 5.3543 16.7498 7.15861C13.4763 9.29543 13.9865 13.7642 17.5006 15.4066ZM12.9312 0C10.4583 0.0997532 8.44052 2.69421 8.72228 4.83978C11.0079 5.01741 13.2007 2.45533 12.9312 0Z" fill="black"/>
    </g>
  </symbol>

  <symbol id="android-logo-black" viewBox="0 0 19 21" 
    xmlns="http://www.w3.org/2000/svg">
    <path d="M13.1343 6.86581L10.8399 5.51294L8.91138 7.49152L10.8399 9.4701L13.1343 8.11722C13.6164 7.84665 13.6164 7.1533 13.1343 6.86581Z" fill="black"/>
    <path d="M0.133005 0C0.0498769 0.118377 0 0.253664 0 0.405862V14.5941C0 14.7463 0.0498769 14.8816 0.133005 15L7.49815 7.50846L0.133005 0Z" fill="black"/>
    <path d="M1.6626 14.8647L9.95878 9.9944L8.19646 8.21875L1.6626 14.8647Z" fill="black"/>
    <path d="M9.95878 5.0056L1.6626 0.135254L8.19646 6.78125L9.95878 5.0056Z" fill="black"/>
  </symbol>

  <symbol id="apple-logo-white" viewBox="0 0 13 15" 
    xmlns="http://www.w3.org/2000/svg">
    <path d="M12.5004 11.0047C12.0091 12.4298 10.5385 14.953 9.02342 14.9805C8.01838 14.9999 7.69525 14.3848 6.54646 14.3848C5.3983 14.3848 5.03891 14.9617 4.08888 14.9992C2.48133 15.0611 0 11.3572 0 8.12714C0 5.16017 2.06757 3.68949 3.87387 3.66262C4.84266 3.64512 5.75769 4.31576 6.34833 4.31576C6.94147 4.31576 8.05276 3.50949 9.22092 3.62762C9.70969 3.64824 11.0829 3.8245 11.9641 5.11329C9.62594 6.63959 9.99032 9.83157 12.5004 11.0047ZM9.23655 0C7.47024 0.0712523 6.02894 1.92444 6.2302 3.45699C7.86275 3.58387 9.42905 1.75381 9.23655 0Z" fill="white"/>
  </symbol>

  <symbol id="android-logo-white" viewBox="0 0 14 15" 
    xmlns="http://www.w3.org/2000/svg">
    <path d="M13.1343 6.86581L10.8399 5.51294L8.91138 7.49152L10.8399 9.4701L13.1343 8.11722C13.6164 7.84665 13.6164 7.1533 13.1343 6.86581Z" fill="white"/>
    <path d="M0.133005 0C0.0498769 0.118377 0 0.253664 0 0.405862V14.5941C0 14.7463 0.0498769 14.8816 0.133005 15L7.49815 7.50846L0.133005 0Z" fill="white"/>
    <path d="M1.6626 14.8647L9.95878 9.9944L8.19646 8.21875L1.6626 14.8647Z" fill="white"/>
    <path d="M9.95878 5.0056L1.6626 0.135254L8.19646 6.78125L9.95878 5.0056Z" fill="white"/>
  </symbol>

  <symbol id="sun" viewBox="0 0 100 100" 
    xmlns="http://www.w3.org/2000/svg">
    <circle cx="50" cy="50" r="50" fill="#FFC83C"/>
  </symbol>

  <symbol id="rain" viewBox="0 0 55 55" 
    xmlns="http://www.w3.org/2000/svg">
    <path fill-rule="evenodd" clip-rule="evenodd" d="M54.8931 2L51.429 0L30.929 35.507L34.3931 37.507L54.8931 2ZM11.1802 0.856384L14.6443 2.85638L3.4641 22.2211L0 20.2211L11.1802 0.856384ZM22.8046 14.6506L26.2687 16.6506L4.26872 54.7558L0.804615 52.7558L22.8046 14.6506Z" fill="#41ABF8"/>
  </symbol>

  <symbol id="fresh-logo" viewBox="0 0 8 12" 
    xmlns="http://www.w3.org/2000/svg">
    <path fill-rule="evenodd" clip-rule="evenodd" d="M6.36401 4.24264L3.53557 1.41419L0.707107 4.24265L0 3.53555L3.53553 1.44141e-05L3.53555 3.34331e-05L3.53559 0L7.07112 3.53553L6.36401 4.24264ZM6.36401 6.99997L3.53557 9.82842L0.707107 6.99996L0 7.70707L3.53553 11.2426L3.53555 11.2426L3.53559 11.2426L7.07112 7.70708L6.36401 6.99997Z" fill="black"/>
  </symbol>

  <symbol id="fresh-logo-bold" viewBox="0 0 9 14" 
    xmlns="http://www.w3.org/2000/svg">
    <!-- fill="black" -->
    <path fill-rule="evenodd" clip-rule="evenodd" d="M7.07144 6.41418L4.24298 3.58572L1.41436 6.41433L0.000150681 5.00012L4.24279 0.757475L4.24283 0.75751L4.24301 0.757324L8.48565 4.99996L7.07144 6.41418ZM1.41421 8.00013L4.24268 10.8286L7.07129 7.99998L8.4855 9.41419L4.24286 13.6568L4.24283 13.6568L4.24264 13.657L0 9.41434L1.41421 8.00013Z" />
  </symbol>

  <symbol id="filter" viewBox="0 0 20 19" 
    xmlns="http://www.w3.org/2000/svg">
    <path fill-rule="evenodd" clip-rule="evenodd" d="M2 5H18V6H2V5ZM4 9H16V10H4V9ZM14 13H6V14H14V13Z" fill="#FFB800"/>
  </symbol>

  <symbol id="vk-logo" viewBox="0 0 32 32" 
    xmlns="http://www.w3.org/2000/svg">
    <path d="M16 0C7.164 0 0 7.164 0 16C0 24.836 7.164 32 16 32C24.836 32 32 24.836 32 16C32 7.164 24.836 0 16 0ZM24.4587 21.5507H21.9693C20.5627 21.5507 20.3267 20.7493 19.1667 19.592C18.12 18.5453 17.54 19.348 17.564 20.8387C17.572 21.2347 17.376 21.5507 16.904 21.5507C15.4307 21.5507 13.312 21.7587 11.1653 19.444C8.96933 17.072 6.66667 12.3133 6.66667 11.8453C6.66667 11.568 6.896 11.444 7.27867 11.444H9.80933C10.48 11.444 10.536 11.776 10.724 12.2013C11.5027 13.976 13.3653 17.5373 13.8627 15.5493C14.148 14.408 14.264 11.764 13.0427 11.536C12.3493 11.408 13.5707 10.6667 15.3387 10.6667C15.7787 10.6667 16.256 10.7133 16.744 10.8267C17.6413 11.0347 17.6453 11.4373 17.632 12.024C17.5867 14.2453 17.3187 15.7387 17.904 16.116C18.4627 16.4773 19.932 14.1133 20.7093 12.288C20.9213 11.784 20.964 11.4453 21.5667 11.4453H24.6627C26.284 11.4453 24.4507 13.776 23.0493 15.5947C21.92 17.06 21.98 17.088 23.2933 18.3067C24.228 19.1747 25.3333 20.36 25.3333 21.0307C25.3333 21.348 25.0853 21.5507 24.4587 21.5507Z" fill="black"/>
  </symbol>

  <symbol id="fb-logo" viewBox="0 0 32 32" 
    xmlns="http://www.w3.org/2000/svg">
    <path d="M16 0C7.164 0 0 7.164 0 16C0 24.836 7.164 32 16 32C24.836 32 32 24.836 32 16C32 7.164 24.836 0 16 0ZM20 10.6667H18.2C17.4827 10.6667 17.3333 10.9613 17.3333 11.704V13.3333H20L19.7213 16H17.3333V25.3333H13.3333V16H10.6667V13.3333H13.3333V10.256C13.3333 7.89733 14.5747 6.66667 17.372 6.66667H20V10.6667Z" fill="black"/>
  </symbol>

  <symbol id="insta-logo" viewBox="0 0 32 32" 
    xmlns="http://www.w3.org/2000/svg">
    <path d="M19.772 8.40267C18.788 8.35733 18.492 8.34933 16 8.34933C13.508 8.34933 13.2133 8.35867 12.2293 8.40267C9.69733 8.51867 8.51867 9.71733 8.40267 12.2293C8.35867 13.2133 8.348 13.508 8.348 16C8.348 18.492 8.35867 18.7867 8.40267 19.772C8.51867 22.2773 9.692 23.4827 12.2293 23.5987C13.212 23.6427 13.508 23.6533 16 23.6533C18.4933 23.6533 18.788 23.644 19.772 23.5987C22.304 23.484 23.4813 22.2813 23.5987 19.772C23.6427 18.788 23.652 18.492 23.652 16C23.652 13.508 23.6427 13.2133 23.5987 12.2293C23.4813 9.71867 22.3013 8.51867 19.772 8.40267ZM16 20.7933C13.3533 20.7933 11.2067 18.648 11.2067 16C11.2067 13.3533 13.3533 11.208 16 11.208C18.6467 11.208 20.7933 13.3533 20.7933 16C20.7933 18.6467 18.6467 20.7933 16 20.7933ZM20.9827 12.1387C20.364 12.1387 19.8627 11.6373 19.8627 11.0187C19.8627 10.4 20.364 9.89867 20.9827 9.89867C21.6013 9.89867 22.1027 10.4 22.1027 11.0187C22.1027 11.636 21.6013 12.1387 20.9827 12.1387ZM19.1107 16C19.1107 17.7187 17.7173 19.1107 16 19.1107C14.2827 19.1107 12.8893 17.7187 12.8893 16C12.8893 14.2813 14.2827 12.8893 16 12.8893C17.7173 12.8893 19.1107 14.2813 19.1107 16ZM16 0C7.164 0 0 7.164 0 16C0 24.836 7.164 32 16 32C24.836 32 32 24.836 32 16C32 7.164 24.836 0 16 0ZM25.2773 19.848C25.124 23.2413 23.2347 25.1213 19.8493 25.2773C18.8533 25.3227 18.5347 25.3333 16 25.3333C13.4653 25.3333 13.148 25.3227 12.152 25.2773C8.76 25.1213 6.87867 23.2387 6.72267 19.848C6.67733 18.8533 6.66667 18.5347 6.66667 16C6.66667 13.4653 6.67733 13.148 6.72267 12.152C6.87867 8.76 8.76133 6.87867 12.152 6.724C13.148 6.67733 13.4653 6.66667 16 6.66667C18.5347 6.66667 18.8533 6.67733 19.8493 6.724C23.2427 6.88 25.1253 8.76667 25.2773 12.152C25.3227 13.148 25.3333 13.4653 25.3333 16C25.3333 18.5347 25.3227 18.8533 25.2773 19.848Z" fill="black"/>
  </symbol>

  <symbol id="arrow-black" viewBox="0 0 25 24" 
    xmlns="http://www.w3.org/2000/svg">
    <path d="M21.4848 20.4885C16.8029 25.1705 9.20202 25.1705 4.51026 20.4885C-0.181507 15.8066 -0.171713 8.2057 4.51026 3.51393C9.19223 -1.17784 16.8029 -1.16804 21.4848 3.52373C26.1668 8.21549 26.1766 15.8066 21.4848 20.4885ZM4.10867 11.3009V12.7212H18.7521V13.2697L13.5803 18.4414L14.5794 19.4405L22.004 12.0159L14.5794 4.59137L13.5803 5.59045L18.7521 10.7622V11.3107L4.10867 11.3009Z" fill="black"/>
  </symbol>

  <symbol id="change-theme" viewBox="0 0 45 20" 
    xmlns="http://www.w3.org/2000/svg">
    <path d="M0 0V10C0 15.4918 4.50818 20 9.99998 20C15.4918 20 20 15.4918 20 10V0H0ZM9.99998 18.3607C5.40982 18.3607 1.63934 14.5902 1.63934 10C1.63934 5.40984 5.40982 1.63934 9.99998 1.63934C14.5901 1.63934 18.3607 5.40984 18.3607 10C18.3607 14.5902 14.5901 18.3607 9.99998 18.3607Z" fill="black"/>
    <path d="M24.5083 0V10C24.5083 15.4918 29.0165 20 34.5083 20C40.0001 20 44.5083 15.5738 44.5083 10V0H24.5083ZM35.5739 1.63934H42.869V8.36066H42.787C42.0493 4.91803 39.1804 2.21311 35.5739 1.80328V1.63934ZM26.1476 1.63934H33.4427V1.72131C29.8362 2.13115 26.9673 4.83607 26.2296 8.27869H26.1476V1.63934Z" fill="black"/>
  </symbol>

  <!-- For windows -->

  <symbol id="login" viewBox="0 0 24 24" fill="none" 
    xmlns="http://www.w3.org/2000/svg">
    <path d="M15.0927 6.18716C15.0927 4.9638 14.1144 3.974 12.9053 3.974C11.6961 3.974 10.7178 4.9638 10.7178 6.18716C10.7178 7.41051 11.6961 8.40032 12.9053 8.40032C14.1144 8.40032 15.0927 7.4068 15.0927 6.18716Z" fill="#020203"/>
    <path d="M9.61831 8.80078H4.79633L2.70046 12.6821L4.39328 13.5719L5.92488 10.7285H8.5777L4.56916 18.1909H0V20.1186H5.70137L7.54076 16.7081H8.10137L10.7212 19.3587V24H12.6266V18.5617L10.058 15.963L12.905 10.6766L9.61831 8.80078Z" fill="#020203"/>
    <path d="M6.81885 0V6.67284H8.72419V1.92771H22.0946V2.83596L17.126 5.0936V13.2456H15.4405L14.0188 11.8072L13.0662 13.5718L14.6491 15.1733H17.126V24H23.9999V0H6.81885Z" fill="#020203"/>
  </symbol>

  <symbol id="closeCross" viewBox="0 0 24 24" fill="none" 
    xmlns="http://www.w3.org/2000/svg">
    <path d="M12 24C18.6318 24 24 18.6318 24 12C24 5.36816 18.6318 0 12 0C5.36816 0 0 5.36816 0 12C0 18.6318 5.36816 24 12 24ZM5.09388 6.07347L6.09306 5.07429L11.7159 10.6971H12.5094L18.1322 5.07429L19.151 6.07347L13.5282 11.6963V12.4898L19.151 18.1224L18.1518 19.1216L12.529 13.4988H11.7355L6.11265 19.1216L5.09388 18.1224L10.7167 12.4996V11.7061L5.09388 6.07347Z" fill="black"/>
  </symbol>

  <symbol id="themeDark" viewBox="0 0 26 25" fill="none" 
    xmlns="http://www.w3.org/2000/svg">
    <path d="M0.899902 0V12.2C0.899902 18.9 6.39991 24.4 13.0999 24.4C19.7999 24.4 25.2999 19 25.2999 12.2V0H0.899902ZM14.3999 2H23.2999V10.2H23.1999C22.2999 6 18.7999 2.7 14.3999 2.2V2ZM2.8999 2H11.7999V2.1C7.3999 2.6 3.89991 5.9 2.99991 10.1H2.8999V2Z" fill="black"/>
  </symbol>

  <symbol id="themLight" viewBox="0 0 25 25" fill="none" 
    xmlns="http://www.w3.org/2000/svg">
    <path d="M0 0V12.2C0 18.9 5.49998 24.4 12.2 24.4C18.9 24.4 24.4 18.9 24.4 12.2V0H0ZM12.2 22.4C6.59998 22.4 2 17.8 2 12.2C2 6.6 6.59998 2 12.2 2C17.8 2 22.4 6.6 22.4 12.2C22.4 17.8 17.8 22.4 12.2 22.4Z" fill="black"/>
  </symbol>

  <symbol id="favorColor" viewBox="0 0 24 22" fill="none" 
    xmlns="http://www.w3.org/2000/svg">
    <path d="M22.1537 2.36303C19.6703 -0.12101 15.6539 -0.12101 13.1705 2.36303L11.996 3.53779L10.8216 2.36303C8.34713 -0.112042 4.33067 -0.112042 1.84727 2.36303C-0.663022 4.87397 -0.707849 8.78387 2.28657 11.788L11.996 21.5L21.7055 11.788C24.7089 8.79284 24.664 4.88294 22.1537 2.36303Z" fill="#F14165"/>
  </symbol>

  <symbol id="backArrow" viewBox="0 0 25 24" fill="none" 
    xmlns="http://www.w3.org/2000/svg">
    <path d="M3.51515 20.4885C8.19712 25.1705 15.798 25.1705 20.4897 20.4885C25.1815 15.8066 25.1717 8.2057 20.4897 3.51393C15.8078 -1.17784 8.19712 -1.16804 3.51515 3.52373C-1.16682 8.21549 -1.17661 15.8066 3.51515 20.4885ZM20.8913 11.3009V12.7212H6.24793V13.2697L11.4197 18.4414L10.4206 19.4405L2.99602 12.0159L10.4206 4.59137L11.4197 5.59045L6.24793 10.7622V11.3107L20.8913 11.3009Z" fill="black"/>
  </symbol>

  <symbol id="logout" viewBox="0 0 24 24" fill="none" 
    xmlns="http://www.w3.org/2000/svg">
    <g clip-path="url(#clip0)">
      <rect width="24" height="24" fill="white"/>
      <path d="M6.69082 6.55298C6.97903 5.39688 6.278 4.22539 5.12502 3.9364C3.97204 3.6474 2.80373 4.35033 2.51551 5.50644C2.2273 6.66254 2.92833 7.83402 4.0813 8.12302C5.23428 8.41202 6.4026 7.70909 6.69082 6.55298Z" fill="#020203"/>
      <path d="M2.10874 12.9144L3.50736 11.512L4.44097 13.2325L2.88375 14.794H0V12.9144H2.10874Z" fill="#020203"/>
      <path d="M7.83643 8.58078H12.5802L14.6385 12.3651L12.9767 13.2326L11.4663 10.4603H8.86016L12.8001 17.7362H17.2987V19.6157H11.6898L9.88029 16.2904H9.32877L6.75142 18.8748V24H4.87698V18.0976L7.40387 15.5639L4.60303 10.4097L7.83643 8.58078Z" fill="#020203"/>
      <path d="M8.09961 3.05176e-05V6.61087H9.97405V1.87955H22.1254V2.76509L17.2375 4.9663V24H23.9999V3.05176e-05H8.09961Z" fill="#020203"/>
    </g>
    <defs>
      <clipPath id="clip0">
        <path d="M0 0H24V24H0V0Z" fill="white"/>
      </clipPath>
    </defs>
  </symbol>

  <symbol id="camera" width="24" height="17" viewBox="0 0 24 17" fill="none" 
    xmlns="http://www.w3.org/2000/svg">
    <path d="M21.6162 3.42792L16.5543 3.02464V0.760037L12.0074 0L7.44574 0.760037V3.04015L2.38381 3.44343L0 5.9562V17H24V5.9562L21.6162 3.42792ZM5.41508 9.46168H3.48743V7.42975H5.4298V9.46168H5.41508ZM12.0074 15.3403C9.34396 15.3403 7.18087 13.0602 7.18087 10.2527C7.18087 7.44526 9.34396 5.16515 12.0074 5.16515C14.6708 5.16515 16.8338 7.44526 16.8338 10.2527C16.8191 13.0757 14.6708 15.3403 12.0074 15.3403Z" fill="black"/>
  </symbol>

  <symbol id="closeCrossGrey" width="32" height="32" viewBox="0 0 32 32" 
    xmlns="http://www.w3.org/2000/svg">
    <path d="M0 16.0001C0 7.16351 7.16344 0 16 0C24.8366 0 32 7.16351 32 16.0001C32 24.8366 24.8366 32.0001 16 32.0001C7.16344 32.0001 0 24.8366 0 16.0001Z" fill="#E1E7EB"/>
    <path fill-rule="evenodd" clip-rule="evenodd" d="M14.46 15.5208V16.3892L8 22.8492L9.06066 23.9099L15.5006 17.47H16.4092L22.8492 23.91L23.9099 22.8494L17.46 16.3995V15.5106L23.9099 9.06066L22.8492 8L16.3793 14.47H15.5305L9.06066 8.00013L8 9.06079L14.46 15.5208Z" fill="black"/>
  </symbol>

  <symbol id="closeCrossWhitBg" viewBox="0 0 24 24" 
    xmlns="http://www.w3.org/2000/svg">
    <path fill-rule="evenodd" clip-rule="evenodd" d="M13.5701 11.66L18.6701 6.56L17.4401 5.33L12.3401 10.43L11.6601 10.44L6.54006 5.31L5.31006 6.54L10.4401 11.66V12.33L5.36006 17.41L6.59006 18.64L11.6701 13.56L12.3501 13.57L17.4601 18.69L18.6901 17.46L13.5701 12.35V11.66Z" fill="black"/>
    <path fill-rule="evenodd" clip-rule="evenodd" d="M12 0C5.37 0 0 5.37 0 12C0 18.63 5.37 24 12 24C18.63 24 24 18.63 24 12C24 5.37 18.63 0 12 0ZM12 22C6.48 22 2 17.52 2 12C2 6.48 6.48 2 12 2C17.52 2 22 6.48 22 12C22 17.52 17.52 22 12 22Z" fill="black"/>
  </symbol>

  <symbol id="sadSmile" width="16" height="17" viewBox="0 0 16 17" fill="none" 
    xmlns="http://www.w3.org/2000/svg">
    <path d="M0 8.5C0 12.9172 3.58275 16.5 8 16.5C12.4172 16.5 16 12.9172 16 8.5C16 4.08275 12.4172 0.5 8 0.5C3.58275 0.5 0 4.08275 0 8.5ZM1.22392 8.5C1.22392 4.76147 4.26147 1.72392 8 1.72392C11.7385 1.72392 14.7761 4.76147 14.7761 8.5C14.7761 12.2385 11.7385 15.2761 8 15.2761C4.26147 15.2761 1.22392 12.2385 1.22392 8.5Z" fill="#CF4A5E"/>
    <path d="M3.28446 11.5988L3.23599 11.6829L3.31858 11.7339L4.36448 12.3792L4.45343 12.4341L4.50433 12.3428C5.18833 11.116 6.49079 10.2912 7.99974 10.2912C9.4976 10.2912 10.8115 11.116 11.5066 12.3434L11.5578 12.4338L11.6461 12.3792L12.692 11.7339L12.7751 11.6827L12.7259 11.5984C11.7743 9.96711 10.0177 8.86729 7.99974 8.86729C5.98186 8.86729 4.225 9.96706 3.28446 11.5988Z" fill="#CF4A5E" stroke="#CF4A5E" stroke-width="0.2"/>
    <path d="M6.54216 5.18433H4.57275V7.23161H6.54216V5.18433Z" fill="#CF4A5E"/>
    <path d="M11.4269 5.18433H9.45752V7.23161H11.4269V5.18433Z" fill="#CF4A5E"/>
  </symbol>

  <symbol id="checkbox" viewBox="0 0 24 24" 
    xmlns="http://www.w3.org/2000/svg">
    <rect x="1" y="1" width="22" height="22" rx="3" stroke="black" stroke-width="2"/>
  </symbol>

  <symbol id="run-man-logo" viewBox="0 0 20 22" 
    xmlns="http://www.w3.org/2000/svg">
    <path fill-rule="evenodd" clip-rule="evenodd" d="M7.52747 3.0167C7.85172 1.71608 7.06306 0.398158 5.76596 0.0730372C4.46885 -0.252084 3.1545 0.538712 2.83026 1.83933C2.50601 3.13995 3.29467 4.45787 4.59177 4.78299C5.88887 5.10811 7.20323 4.31731 7.52747 3.0167ZM2.37233 10.1734L3.94578 8.59567L4.99609 10.5312L3.24422 12.2878H0V10.1734H2.37233ZM14.153 5.29782H8.81629L5.17871 7.35535L8.32966 13.1538L5.48691 16.0043V21.9695H7.59565V16.8785L10.4952 13.9712H11.1156L13.1514 17.7121H19.4614V15.5977H14.4004L9.96799 7.41228H12.8999L14.5991 10.5311L16.4686 9.5552L14.153 5.29782Z"/>
  </symbol>

  <symbol id="plus" viewBox="0 0 18 18" 
    xmlns="http://www.w3.org/2000/svg">
    <!-- fill="#FFB800" -->
    <path d="M15.3588 2.63939C11.8469 -0.879796 6.14571 -0.879796 2.63388 2.63939C-0.877959 6.15857 -0.877959 11.8524 2.63388 15.3716C6.14571 18.8835 11.8469 18.8835 15.3661 15.3716C18.8853 11.8598 18.878 6.15122 15.3588 2.63939ZM9.83388 9.54551L9.40775 9.97163V15.9373H8.34245V9.97163L7.91633 9.54551H1.95061V8.4802H7.91633L8.34245 8.05408V2.09571H9.40775V8.06143L9.83388 8.48755H15.7996V9.55286L9.83388 9.54551Z" />
  </symbol>

  <symbol id="increment" viewBox="0 0 24 24" xmlns="http://www.w3.org/2000/svg">
    <path d="M20.4784 3.51918C15.7959 -1.17306 8.19429 -1.17306 3.51184 3.51918C-1.17061 8.21143 -1.17061 15.8033 3.51184 20.4955C8.19429 25.178 15.7959 25.178 20.4882 20.4955C25.1804 15.8131 25.1706 8.20163 20.4784 3.51918ZM13.1118 12.7273L12.5437 13.2955V21.2498H11.1233V13.2955L10.5551 12.7273H2.60082V11.3069H10.5551L11.1233 10.7388V2.79429H12.5437V10.7486L13.1118 11.3167H21.0661V12.7371L13.1118 12.7273Z" />
  </symbol>

  <symbol id="decrement" viewBox="0 0 24 24" xmlns="http://www.w3.org/2000/svg">
    <path d="M20.4763 3.51757C15.7943 -1.17252 8.19345 -1.17252 3.51148 3.51757C-1.17049 8.20766 -1.17049 15.796 3.51148 20.4861C8.19345 25.1762 15.7943 25.1664 20.4861 20.4861C25.1778 15.8058 25.168 8.19787 20.4763 3.51757ZM2.61035 12.7215V11.3017H21.064V12.7215H2.61035Z"/>
  </symbol>

</svg>
