<?xml version="1.0" standalone="no"?>
<!DOCTYPE svg PUBLIC "-//W3C//DTD SVG 20010904//EN"
 "http://www.w3.org/TR/2001/REC-SVG-20010904/DTD/svg10.dtd">
<svg version="1.0" xmlns="http://www.w3.org/2000/svg"
 width="512.000000pt" height="512.000000pt" viewBox="0 0 512.000000 512.000000"
 preserveAspectRatio="xMidYMid meet">
<metadata>
Created by potrace 1.11, written by Peter Selinger 2001-2013
</metadata>
<g transform="translate(0.000000,512.000000) scale(0.100000,-0.100000)"
fill="#000000" stroke="none">
<path d="M1028 5108 c-2 -7 -3 -122 -3 -255 l1 -243 -140 -1 c-146 -1 -168 -2
-224 -13 -134 -26 -281 -140 -344 -267 -60 -121 -57 8 -55 -2044 l2 -1880 22
-60 c62 -163 197 -286 363 -329 47 -12 336 -15 1902 -15 1342 -1 1861 2 1900
10 198 43 361 208 397 405 8 41 11 614 11 1909 l-1 1850 -23 70 c-28 86 -57
136 -115 198 -57 61 -130 109 -206 136 -75 26 -105 29 -281 30 l-141 1 0 253
1 252 -256 3 -256 2 0 -251 c0 -138 -2 -253 -5 -255 -5 -6 -2029 -5 -2035 1
-2 2 -5 116 -6 252 l-1 248 -251 3 c-196 2 -253 0 -256 -10z m3322 -3188 l0
-1410 -1790 0 -1790 1 0 1409 0 1410 1790 0 1790 0 0 -1410z"/>
<path d="M2564 2295 c-2 -5 -3 -293 -2 -640 l3 -630 635 0 635 0 1 640 1 640
-635 0 c-414 0 -636 -3 -638 -10z"/>
</g>
</svg>
